<svg xmlns="http://www.w3.org/2000/svg" viewBox="0 0 24 24" fill="none"><path stroke="currentColor" stroke-linecap="round" stroke-linejoin="round" stroke-width="1.5" d="M17.25 4.75H6.75a2 2 0 0 0-2 2v10.5a2 2 0 0 0 2 2h10.5a2 2 0 0 0 2-2V6.75a2 2 0 0 0-2-2Z"></path><path stroke="currentColor" stroke-linecap="round" stroke-linejoin="round" stroke-width="1.5" d="M15.57 7.177H8.43c-.75 0-1.36.461-1.36 1.03v5.413c0 .57.61 1.03 1.36 1.03h7.14c.75 0 1.36-.46 1.36-1.03V8.208c0-.57-.61-1.031-1.36-1.031Z"></path><circle cx="9.625" cy="9.774" r=".75" fill="currentColor"></circle><circle cx="14.375" cy="9.774" r=".75" fill="currentColor"></circle><path stroke="currentColor" d="M13.266 11.152a1.266 1.266 0 1 1-2.532 0"></path><path stroke="currentColor" stroke-linecap="round" stroke-width="1.5" d="M14.709 17.079h2.002"></path></svg>
