<svg width="132" height="32" viewBox="0 0 132 32" fill="none" xmlns="http://www.w3.org/2000/svg">
<path d="M12.25 5H8.125V9.125H12.25V5Z" fill="black"/>
<path d="M16.375 9.125H8.125V13.25H16.375V9.125Z" fill="black"/>
<path d="M30.125 13.25H8.125V17.375H30.125V13.25Z" fill="black"/>
<path d="M30.125 17.375H26V22.875H30.125V17.375Z" fill="black"/>
<path d="M20.5 17.375H16.375V22.875H20.5V17.375Z" fill="black"/>
<path d="M12.25 17.375H8.125V22.875H12.25V17.375Z" fill="black"/>
<path d="M34.25 22.875H20.5V27H34.25V22.875Z" fill="black"/>
<path d="M16.375 22.875H4V27H16.375V22.875Z" fill="black"/>
<path d="M30.125 9.125H20.5V13.25H30.125V9.125Z" fill="black"/>
<path d="M30.125 5H26V9.125H30.125V5Z" fill="black"/>
<path d="M53.6146 22.1064H53.5659L47.5367 5H42.5V27H45.8678V9.80147H45.8904L51.927 26.9386L51.9496 27H55.0805L61.1397 9.80147H61.1623V27H64.5V5H59.5836L53.6146 22.1064Z" fill="black"/>
<path d="M70 10.5H67.25V27H70V10.5Z" fill="black"/>
<path d="M70 5H67.25V9.125H70V5Z" fill="black"/>
<path d="M83.6765 18.2393C82.8112 17.8888 81.6655 17.5571 80.2681 17.2588L79.5123 17.1097C78.5821 16.9307 77.8507 16.7667 77.3428 16.6176C76.8474 16.4722 76.4288 16.2672 76.0998 16.0062C75.7829 15.7527 75.6284 15.4172 75.6284 14.981C75.6284 14.351 75.921 13.8887 76.5263 13.5756C77.1399 13.255 77.9075 13.0909 78.8014 13.0909C80.9708 13.0909 82.214 13.9036 82.5998 15.57L82.6162 15.6446H86.2562L86.2359 15.5365C85.8825 13.7359 85.0008 12.4311 83.6195 11.6557C82.2464 10.8877 80.6702 10.5 78.9355 10.5C77.091 10.5 75.4862 10.8802 74.1659 11.6259C72.8294 12.3826 72.1551 13.542 72.1551 15.0705C72.1551 16.4797 72.7318 17.5459 73.8695 18.243C74.9908 18.929 76.4776 19.4583 78.2935 19.82C79.4677 20.0398 80.3695 20.23 80.9708 20.3903C81.5639 20.547 82.0596 20.7779 82.4375 21.0763C82.8112 21.3708 82.99 21.7472 82.99 22.2207C82.99 22.9141 82.6771 23.4398 82.0351 23.8237C81.3892 24.2115 80.532 24.4091 79.488 24.4091C78.5048 24.4091 77.5947 24.178 76.7742 23.7157C75.9616 23.2608 75.3645 22.4556 75.0028 21.3223L74.9825 21.2552H71.375L71.4034 21.367C71.8868 23.4063 72.8985 24.8714 74.4138 25.7251C75.917 26.5713 77.6395 27 79.5245 27C81.4095 27 83.0874 26.6012 84.4403 25.8145C85.8093 25.0205 86.5 23.7977 86.5 22.1909C86.5 21.1731 86.244 20.3418 85.7444 19.7156C85.2446 19.093 84.5499 18.6008 83.6724 18.243L83.6765 18.2393Z" fill="black"/>
<path d="M92.5532 6.375H89.3814V11.1623H86.5V14.0649H89.3531V23.8512C89.3531 25.0548 89.6221 25.8911 90.1567 26.3376C90.6842 26.7767 91.555 27 92.7515 27H96.1214V23.9118H93.0665C92.6807 23.9118 92.5001 23.7189 92.5001 23.3064V14.0687H96.125V11.166H92.5602V6.375H92.5532Z" fill="black"/>
<path d="M102.942 11.2018C102.352 11.6552 101.985 12.3136 101.845 13.1692L101.835 10.5H98.875V27H101.862V18.1961C101.862 16.7609 102.102 15.6097 102.572 14.7699C103.035 13.9459 103.872 13.5279 105.055 13.5279H107.125V10.5039H105.028C104.245 10.5039 103.542 10.7405 102.942 11.2018Z" fill="black"/>
<path d="M120.362 11.6373C119.125 10.8803 117.672 10.5 116.022 10.5C114.372 10.5 112.9 10.8692 111.573 11.5925C110.235 12.3234 109.403 13.6098 109.098 15.4146L109.08 15.5227H112.409L112.424 15.4481C112.599 14.6203 113.008 14.0274 113.651 13.6918C114.305 13.3488 115.07 13.1773 115.929 13.1773C116.709 13.1773 117.419 13.3339 118.043 13.6471C118.653 13.9529 118.95 14.4376 118.95 15.1274C118.95 15.5637 118.82 15.8881 118.549 16.123C118.27 16.3654 117.909 16.5481 117.475 16.6749C117.032 16.8017 116.386 16.9396 115.553 17.0776L114.896 17.1969C113.636 17.4169 112.569 17.678 111.722 17.9651C110.864 18.2596 110.105 18.7593 109.466 19.4491C108.823 20.1465 108.5 21.1159 108.5 22.339C108.5 23.7633 109.024 24.9119 110.061 25.747C111.09 26.5786 112.402 27 113.952 27C115.1 27 116.126 26.7576 117.006 26.2841C117.872 25.8141 118.549 25.0646 119.013 24.058H119.039V26.5524H122.25V15.6383C122.25 13.7478 121.615 12.4017 120.362 11.6373ZM114.409 24.4755C113.732 24.4755 113.134 24.2742 112.625 23.8789C112.116 23.4836 111.867 22.943 111.867 22.2234C111.867 21.4516 112.16 20.8959 112.766 20.5304C113.383 20.1576 114.234 19.8482 115.297 19.6094L116.107 19.4603C116.828 19.3185 117.408 19.177 117.839 19.0352C118.266 18.8973 118.627 18.6846 118.913 18.4087H118.961V19.4864C118.961 20.5677 118.742 21.4925 118.314 22.2346C117.887 22.9765 117.319 23.5433 116.627 23.9124C115.936 24.2854 115.189 24.4718 114.409 24.4718V24.4755Z" fill="black"/>
<path d="M127.75 5H125V27H127.75V5Z" fill="black"/>
</svg>
